<svg xmlns="http://www.w3.org/2000/svg" viewBox="0 0 512 512"><defs><clipPath id="h"><path d="M82 224 L236 70 Q256 50 276 70 L430 224 Q449 243 437 268 Q428 286 405 286 H389 V390 Q389 430 349 430 H163 Q123 430 123 390 V286 H107 Q84 286 75 268 Q63 243 82 224 Z"/></clipPath></defs><g clip-path="url(#h)"><rect x="54" y="42" width="404" height="410" fill="#76D2E7"/><path d="M262 48 L462 248 L315 395 L115 195 Z" fill="#BEEAF4"/><path d="M176 365 L111 300 L296 115 L361 180 Z" fill="#FFFFFF"/></g><path d="M91 384 L181 294" stroke="#1859B7" stroke-width="30" stroke-linecap="square"/><path d="M137 303 L202 368" stroke="#1859B7" stroke-width="34" stroke-linecap="square"/><path d="M238 188 L248 219 L279 229 L248 239 L238 270 L228 239 L197 229 L228 219 Z" fill="#1859B7"/></svg>